<svg width="125" height="125" viewBox="0 0 125 125" fill="none" xmlns="http://www.w3.org/2000/svg">
<g clip-path="url(#clip0_1593_21308)">
<g clip-path="url(#clip1_1593_21308)">
<path d="M124.122 62.2976C124.122 28.056 96.5342 0.297607 62.5025 0.297607C28.4709 0.297607 0.882812 28.056 0.882812 62.2976C0.882812 96.5393 28.4709 124.298 62.5025 124.298C96.5342 124.298 124.122 96.5393 124.122 62.2976Z" fill="white"/>
<path d="M70.3657 78.8663H68.9195L68.1985 80.1201L63.745 87.8649L59.2447 80.1113L58.522 78.8663H57.0825H50.3427H40.8633C40.0349 78.8663 39.3633 78.1947 39.3633 77.3663V42.3918C39.3633 41.5634 40.0349 40.8918 40.8633 40.8918H85.9964C86.8248 40.8918 87.4964 41.5634 87.4964 42.3918V77.3663C87.4964 78.1947 86.8248 78.8663 85.9964 78.8663H76.9093H70.3657ZM62.4507 90.1158C62.4511 90.1151 62.4514 90.1144 62.4518 90.1138L62.4507 90.1158Z" stroke="#121212" stroke-width="5"/>
<path d="M53.6758 61.3557L60.4424 66.948C60.6425 67.1134 60.936 67.098 61.1179 66.9127L73.184 54.6111" stroke="#121212" stroke-width="5" stroke-linecap="round"/>
</g>
</g>
<defs>
<clipPath id="clip0_1593_21308">
<rect width="124" height="124" fill="white" transform="translate(0.5 0.297607)"/>
</clipPath>
<clipPath id="clip1_1593_21308">
<rect width="125" height="124" fill="white" transform="translate(0 0.297607)"/>
</clipPath>
</defs>
</svg>
