<svg width="64" height="65" viewBox="0 0 64 65" fill="none" xmlns="http://www.w3.org/2000/svg">
<path d="M22.5879 11.6061C22.9038 10.721 24.1555 10.721 24.4715 11.6061L28.1238 21.8388C29.1322 24.6637 31.3553 26.8869 34.1803 27.8952L44.4129 31.5476C45.298 31.8635 45.298 33.1153 44.4129 33.4312L34.1803 37.0835C31.3553 38.0919 29.1322 40.315 28.1238 43.14L24.4715 53.3726C24.1555 54.2577 22.9038 54.2577 22.5879 53.3726L18.9355 43.14C17.9272 40.315 15.704 38.0919 12.8791 37.0835L2.64642 33.4312C1.7613 33.1153 1.7613 31.8635 2.64642 31.5476L12.8791 27.8952C15.704 26.8869 17.9272 24.6637 18.9355 21.8388L22.5879 11.6061Z" fill="#9101FE"/>
<path d="M47.5295 2.93621C47.8454 2.0511 49.0972 2.0511 49.4131 2.93621L50.9612 7.27338C51.9695 10.0983 54.1927 12.3215 57.0176 13.3298L61.3548 14.8779C62.2399 15.1938 62.2399 16.4456 61.3548 16.7615L57.0176 18.3096C54.1927 19.3179 51.9695 21.5411 50.9612 24.366L49.4131 28.7032C49.0972 29.5883 47.8454 29.5883 47.5295 28.7032L45.9814 24.366C44.9731 21.5411 42.75 19.3179 39.925 18.3096L35.5878 16.7615C34.7027 16.4456 34.7027 15.1938 35.5878 14.8779L39.925 13.3298C42.75 12.3215 44.9731 10.0983 45.9814 7.27338L47.5295 2.93621Z" fill="#9101FE"/>
<path d="M43.4564 39.8386C43.7723 38.9534 45.0241 38.9534 45.34 39.8386L46.4034 42.8178C47.4117 45.6427 49.6349 47.8659 52.4598 48.8742L55.439 49.9376C56.3241 50.2535 56.3241 51.5053 55.439 51.8212L52.4598 52.8846C49.6349 53.8929 47.4117 56.1161 46.4034 58.941L45.34 61.9202C45.0241 62.8053 43.7723 62.8053 43.4564 61.9202L42.393 58.941C41.3847 56.1161 39.1615 53.8929 36.3366 52.8846L33.3574 51.8212C32.4722 51.5053 32.4722 50.2535 33.3574 49.9376L36.3366 48.8742C39.1615 47.8659 41.3847 45.6427 42.393 42.8178L43.4564 39.8386Z" fill="#9101FE"/>
</svg>
