<svg width="125" height="125" viewBox="0 0 125 125" fill="none" xmlns="http://www.w3.org/2000/svg">
<g clip-path="url(#clip0_1593_21317)">
<g clip-path="url(#clip1_1593_21317)">
<path d="M124.122 62.2976C124.122 28.056 96.5342 0.297607 62.5025 0.297607C28.4709 0.297607 0.882812 28.056 0.882812 62.2976C0.882812 96.5393 28.4709 124.298 62.5025 124.298C96.5342 124.298 124.122 96.5393 124.122 62.2976Z" fill="white"/>
<path d="M86.2685 39.4561H40.5854C37.4161 39.4561 34.9036 41.9972 34.9036 45.1664L34.875 79.4288C34.875 82.598 37.4161 85.1392 40.5854 85.1392H86.2685C89.4378 85.1392 91.9789 82.598 91.9789 79.4288V45.1664C91.9789 41.9972 89.4378 39.4561 86.2685 39.4561ZM86.2685 79.4288H40.5854V62.2976H86.2685V79.4288ZM86.2685 50.8768H40.5854V45.1664H86.2685V50.8768Z" fill="#121212"/>
</g>
</g>
<defs>
<clipPath id="clip0_1593_21317">
<rect width="124" height="124" fill="white" transform="translate(0.5 0.297607)"/>
</clipPath>
<clipPath id="clip1_1593_21317">
<rect width="125" height="124" fill="white" transform="translate(0 0.297607)"/>
</clipPath>
</defs>
</svg>
