<svg width="22" height="21" viewBox="0 0 22 21" fill="none" xmlns="http://www.w3.org/2000/svg">
<path d="M9.25 13.25L9.25 10.6667" stroke="#F42525" stroke-width="2" stroke-linecap="round"/>
<path d="M12.75 13.25L12.75 10.6667" stroke="#F42525" stroke-width="2" stroke-linecap="round"/>
<path d="M3.125 6.36133H18.875V6.36133C18.2939 6.36133 18.0033 6.36133 17.764 6.42127C17.0482 6.60058 16.4892 7.15952 16.3099 7.87537C16.25 8.11465 16.25 8.40521 16.25 8.98633V13.5558C16.25 15.4414 16.25 16.3842 15.6642 16.97C15.0784 17.5558 14.1356 17.5558 12.25 17.5558H9.75C7.86438 17.5558 6.92157 17.5558 6.33579 16.97C5.75 16.3842 5.75 15.4414 5.75 13.5558V8.98633C5.75 8.40521 5.75 8.11465 5.69006 7.87537C5.51075 7.15952 4.95181 6.60058 4.23596 6.42127C3.99668 6.36133 3.70612 6.36133 3.125 6.36133V6.36133Z" stroke="#F42525" stroke-width="2" stroke-linecap="round"/>
<path d="M9.30963 3.23709C9.40934 3.14554 9.62904 3.06464 9.93467 3.00694C10.2403 2.94924 10.6148 2.91797 11 2.91797C11.3852 2.91797 11.7597 2.94924 12.0653 3.00694C12.371 3.06464 12.5907 3.14554 12.6904 3.23709" stroke="#F42525" stroke-width="2" stroke-linecap="round"/>
</svg>
