<svg width="23" height="23" viewBox="0 0 23 23" fill="none" xmlns="http://www.w3.org/2000/svg">
<path d="M15.2048 6.36161L15.2048 8.03939L15.2048 21.7718C15.2048 22.1831 15.2048 22.3887 15.0727 22.4593C14.9407 22.53 14.7696 22.4159 14.4274 22.1878L11.8154 20.4465C11.681 20.3569 11.6138 20.3121 11.5381 20.3121C11.4624 20.3121 11.3952 20.3569 11.2607 20.4465L8.14877 22.5212C8.01433 22.6108 7.94711 22.6556 7.87142 22.6556C7.79573 22.6556 7.72851 22.6108 7.59407 22.5212L4.4821 20.4465L4.4821 20.4465C4.34766 20.3569 4.28045 20.3121 4.20475 20.3121C4.12906 20.3121 4.06184 20.3569 3.9274 20.4465L1.31544 22.1878C0.97325 22.4159 0.802157 22.53 0.670121 22.4593C0.538086 22.3887 0.538086 22.1831 0.538086 21.7718L0.538085 4.70606C0.538085 2.82045 0.538085 1.87764 1.12387 1.29185C1.70966 0.706064 2.65247 0.706064 4.53809 0.706064L18.8714 0.706065L17.8766 1.3693C16.5687 2.24123 15.9147 2.6772 15.5597 3.34048C15.2048 4.00376 15.2048 4.78971 15.2048 6.36161Z" fill="#767676"/>
<path d="M15.2047 3.70606C15.2047 2.0492 16.5479 0.706055 18.2047 0.706055H19.538C21.1949 0.706055 22.538 2.0492 22.538 3.70605V7.03939C22.538 7.59167 22.0903 8.03939 21.538 8.03939H15.7047C15.4286 8.03939 15.2047 7.81553 15.2047 7.53939V3.70606Z" fill="#555555"/>
<path d="M3.59363 8.65039L12.1492 8.65039" stroke="#555555" stroke-linecap="round"/>
<path d="M3.59363 12.3174L8.48252 12.3174" stroke="#555555" stroke-linecap="round"/>
<path d="M3.59363 15.9834L10.927 15.9834" stroke="#555555" stroke-linecap="round"/>
</svg>
