<svg width="23" height="24" viewBox="0 0 23 24" fill="none" xmlns="http://www.w3.org/2000/svg">
<path fill-rule="evenodd" clip-rule="evenodd" d="M10.1912 12.9473C5.4292 12.9473 1.46067 16.5076 0.576807 21.2269C0.37347 22.3126 1.28854 23.2161 2.39311 23.2161H17.9892C19.0938 23.2161 20.0089 22.3126 19.8055 21.2269C18.9217 16.5076 14.9531 12.9473 10.1912 12.9473Z" fill="#E54D33"/>
<path d="M18.0235 10.7815L18.2209 10.8631L18.0235 10.7815L16.4022 14.844L16.3973 14.8562C16.2724 15.1691 16.1719 15.421 16.1043 15.6296C16.0348 15.8442 15.9912 16.039 15.9955 16.2338C16.0013 16.499 16.0725 16.7414 16.2 16.9304C16.2938 17.0693 16.4204 17.1574 16.5748 17.2318C16.7249 17.3041 16.9192 17.3715 17.1605 17.4551L17.1699 17.4583L17.1788 17.4614C17.4013 17.5385 17.5809 17.6007 17.7324 17.6349C17.8886 17.6702 18.0332 17.6805 18.1856 17.6384C18.394 17.5808 18.5957 17.4545 18.7679 17.2738C18.8938 17.1417 18.9884 16.9816 19.0786 16.792C19.166 16.6082 19.259 16.3752 19.3741 16.0868L19.3787 16.0752L21.0236 11.9535L21.0307 11.9358C21.1272 11.694 21.2102 11.4863 21.2592 11.3136C21.3116 11.1289 21.3381 10.9421 21.2856 10.7634C21.2331 10.5847 21.1222 10.4839 20.9944 10.4121C20.875 10.3449 20.7147 10.2894 20.5282 10.2248L20.5146 10.2201L19.4881 9.86444L19.4751 9.85996C19.3035 9.80049 19.1553 9.74912 19.0286 9.72849C18.8925 9.70634 18.7517 9.71377 18.604 9.80624C18.4563 9.89871 18.3556 10.0426 18.2728 10.2017C18.1957 10.35 18.119 10.5422 18.0302 10.7647L18.0235 10.7815Z" fill="#EE7662" stroke="white" stroke-width="0.5"/>
<path d="M17.8877 11.6609L17.6946 11.594L17.5948 11.8443L16.0322 15.7595C16.0254 15.7766 16.0187 15.7935 16.012 15.8101C15.8579 16.1959 15.7508 16.464 15.7309 16.7405C15.711 17.0171 15.7811 17.2642 15.8819 17.6197C15.8863 17.6351 15.8907 17.6506 15.8952 17.6664L16.1223 18.4688C16.1235 18.4731 16.1247 18.4774 16.126 18.4816C16.154 18.5807 16.1813 18.6774 16.2133 18.7516C16.2495 18.8355 16.3042 18.9226 16.4028 18.9641C16.5013 19.0056 16.6002 18.9832 16.6837 18.9497C16.7576 18.92 16.8436 18.8712 16.9319 18.821L16.9433 18.8145L17.8476 18.3009C17.8618 18.2928 17.8758 18.2848 17.8897 18.277C18.2105 18.0949 18.4335 17.9684 18.6116 17.7544C18.7897 17.5403 18.898 17.2686 19.0539 16.8777C19.0606 16.8608 19.0674 16.8437 19.0744 16.8264L20.6321 12.9231L20.7413 12.6495L20.5303 12.5764L17.8877 11.6609Z" fill="#EE7662" stroke="white" stroke-width="0.5"/>
<path d="M16.7953 6.93177C16.7953 10.3933 13.8851 12.6641 10.2953 12.6641C6.70544 12.6641 3.79529 10.3933 3.79529 6.93177C3.79529 3.47021 6.70544 0.664062 10.2953 0.664062C13.8851 0.664062 16.7953 3.47021 16.7953 6.93177Z" fill="#F56952"/>
</svg>
