<svg width="24" height="22" viewBox="0 0 24 22" fill="none" xmlns="http://www.w3.org/2000/svg">
<mask id="mask0_941_4337" style="mask-type:alpha" maskUnits="userSpaceOnUse" x="3" y="3" width="18" height="17">
<path d="M3.375 11.25C3.375 7.4371 3.375 5.53065 4.54657 4.35907C5.71815 3.1875 7.60376 3.1875 11.375 3.1875H12.625C16.3962 3.1875 18.2819 3.1875 19.4534 4.35907C20.625 5.53065 20.625 7.4371 20.625 11.25V11.25C20.625 15.0629 20.625 16.9694 19.4534 18.1409C18.2819 19.3125 16.3962 19.3125 12.625 19.3125H11.375C7.60376 19.3125 5.71815 19.3125 4.54657 18.1409C3.375 16.9694 3.375 15.0629 3.375 11.25V11.25Z" fill="black"/>
</mask>
<g mask="url(#mask0_941_4337)">
<path d="M12.9713 13.8693L13.6853 13.1692L13.6853 13.1692L12.9713 13.8693ZM10.677 11.5297L9.96303 12.2298L9.96303 12.2298L10.677 11.5297ZM13.4684 14.3141L12.9898 15.1921L12.9898 15.1921L13.4684 14.3141ZM14.387 14.3341L13.947 13.4361L13.947 13.4361L14.387 14.3341ZM14.903 13.9113L15.5859 14.6419C15.5941 14.6342 15.6022 14.6264 15.6101 14.6185L14.903 13.9113ZM14.903 13.9113L14.2201 13.1808C14.2119 13.1885 14.2039 13.1963 14.1959 13.2042L14.903 13.9113ZM15.8968 13.095L16.3442 13.9893L16.3442 13.9893L15.8968 13.095ZM17.6866 13.095L17.2391 13.9893L17.2391 13.9893L17.6866 13.095ZM18.6803 13.9113L17.9974 14.6419L17.9974 14.6419L18.6803 13.9113ZM20.5655 15.6735L21.2483 14.943L21.2483 14.943L20.5655 15.6735ZM21.5313 14.8539L22.5296 14.7946L22.5296 14.7946L21.5313 14.8539ZM21.0882 7.39721L22.0864 7.33789L22.0864 7.33789L21.0882 7.39721ZM19.6119 0.894612L20.298 0.167086L20.298 0.167078L19.6119 0.894612ZM19.455 0.754288L18.8082 1.5169L18.8082 1.5169L19.455 0.754288ZM12.8287 0.00907397L12.8806 1.00773L12.8287 0.00907397ZM10.9601 0.106117L11.012 1.10477L10.9601 0.106117ZM4.47416 1.54358L5.19937 2.23211L5.19937 2.23211L4.47416 1.54358ZM3.375 11.1193H2.375C2.375 11.6715 2.82272 12.1193 3.375 12.1193V11.1193ZM5.96665 10.5661L6.28922 11.5127L6.28922 11.5127L5.96665 10.5661ZM8.70497 9.95774L8.47371 10.9306L8.47371 10.9306L8.70497 9.95774ZM13.6853 13.1692L11.391 10.8295L9.96303 12.2298L12.2573 14.5695L13.6853 13.1692ZM13.9471 13.4361C13.9831 13.4557 13.9882 13.4673 13.9391 13.4221C13.8852 13.3726 13.8146 13.301 13.6853 13.1692L12.2573 14.5695C12.4506 14.7666 12.695 15.0314 12.9898 15.1921L13.9471 13.4361ZM13.947 13.4361L13.947 13.4361L12.9898 15.1921C13.5595 15.5027 14.2444 15.5176 14.827 15.2321L13.947 13.4361ZM14.2201 13.1808C14.0853 13.3069 14.0116 13.3753 13.9556 13.4225C13.9046 13.4655 13.9102 13.4541 13.947 13.4361L14.827 15.2321C15.1286 15.0844 15.3842 14.8304 15.5859 14.6419L14.2201 13.1808ZM14.1959 13.2042L14.1959 13.2042L15.6101 14.6185L15.6101 14.6184L14.1959 13.2042ZM14.1959 13.2042L14.1959 13.2042L15.6101 14.6184L15.6101 14.6184L14.1959 13.2042ZM15.4493 12.2007C15.0282 12.4114 14.6591 12.7705 14.2201 13.1808L15.5859 14.6419C16.1264 14.1366 16.247 14.0379 16.3442 13.9893L15.4493 12.2007ZM18.134 12.2007C17.289 11.7779 16.2943 11.7779 15.4493 12.2007L16.3442 13.9893C16.6259 13.8484 16.9575 13.8484 17.2391 13.9893L18.134 12.2007ZM19.3632 13.1808C18.9242 12.7705 18.5551 12.4114 18.134 12.2007L17.2391 13.9893C17.3363 14.0379 17.457 14.1366 17.9974 14.6419L19.3632 13.1808ZM21.2483 14.943L19.3632 13.1808L17.9974 14.6419L19.8826 16.4041L21.2483 14.943ZM20.7065 14.7292C20.9077 14.7292 21.1014 14.8056 21.2483 14.943L19.8826 16.4041C20.1061 16.613 20.4006 16.7292 20.7065 16.7292V14.7292ZM20.5331 14.9132C20.5271 14.8134 20.6065 14.7292 20.7065 14.7292V16.7292C21.7577 16.7292 22.5919 15.844 22.5296 14.7946L20.5331 14.9132ZM20.0899 7.45654L20.5331 14.9132L22.5296 14.7946L22.0864 7.33789L20.0899 7.45654ZM18.9258 1.62214C19.2887 1.96437 19.5423 2.45464 19.7202 3.38796C19.9032 4.34784 19.9811 5.62482 20.0899 7.45654L22.0864 7.33789C21.9807 5.56035 21.8977 4.13039 21.6848 3.01347C21.4669 1.86997 21.0896 0.913578 20.298 0.167086L18.9258 1.62214ZM18.8082 1.5169C18.8483 1.55094 18.8875 1.58604 18.9258 1.62215L20.298 0.167078C20.2342 0.106904 20.1688 0.0484184 20.1019 -0.00831925L18.8082 1.5169ZM12.8806 1.00773C14.7131 0.912563 15.9908 0.848185 16.9651 0.923459C17.9124 0.99665 18.4278 1.19423 18.8082 1.5169L20.1019 -0.00831874C19.2721 -0.712139 18.2798 -0.980925 17.1191 -1.0706C15.9855 -1.15819 14.5552 -1.08193 12.7769 -0.98958L12.8806 1.00773ZM11.012 1.10477L12.8806 1.00773L12.7769 -0.98958L10.9082 -0.892537L11.012 1.10477ZM5.19937 2.23211C5.54653 1.86645 6.0373 1.61534 6.96437 1.44399C7.91982 1.26739 9.18892 1.19945 11.012 1.10477L10.9082 -0.892537C9.14009 -0.800713 7.7158 -0.72878 6.60086 -0.5227C5.45754 -0.311375 4.50093 0.0630035 3.74894 0.855057L5.19937 2.23211ZM4.375 8.09705C4.375 6.27099 4.37703 4.99962 4.50385 4.036C4.6269 3.10095 4.85224 2.59773 5.19937 2.23211L3.74895 0.855057C2.99691 1.64716 2.67268 2.62209 2.52094 3.77505C2.37297 4.89944 2.375 6.32594 2.375 8.09705H4.375ZM4.375 11.1193V8.09705H2.375V11.1193H4.375ZM5.64408 9.61959C4.76675 9.91856 3.94194 10.1193 3.375 10.1193V12.1193C4.2906 12.1193 5.37833 11.8231 6.28922 11.5127L5.64408 9.61959ZM8.93623 8.98485C8.42351 8.86297 7.91571 8.93555 7.42969 9.05561C6.9448 9.17539 6.35246 9.37818 5.64408 9.61959L6.28922 11.5127C7.0321 11.2595 7.52821 11.0914 7.90931 10.9972C8.28928 10.9034 8.42501 10.9191 8.47371 10.9306L8.93623 8.98485ZM11.391 10.8295C10.9346 10.3641 10.543 9.96323 10.1921 9.66842C9.82948 9.36386 9.4314 9.10255 8.93623 8.98485L8.47371 10.9306C8.53998 10.9464 8.65771 10.9915 8.90569 11.1998C9.16529 11.4179 9.47898 11.7362 9.96303 12.2298L11.391 10.8295ZM16.75 7.21878C16.75 7.34617 16.6187 7.56253 16.3125 7.56253V9.56253C17.5941 9.56253 18.75 8.57565 18.75 7.21878H16.75ZM16.3125 6.87503C16.6187 6.87503 16.75 7.09139 16.75 7.21878H18.75C18.75 5.86191 17.5941 4.87503 16.3125 4.87503V6.87503ZM15.875 7.21878C15.875 7.09139 16.0063 6.87503 16.3125 6.87503V4.87503C15.0309 4.87503 13.875 5.86191 13.875 7.21878H15.875ZM16.3125 7.56253C16.0063 7.56253 15.875 7.34617 15.875 7.21878H13.875C13.875 8.57565 15.0309 9.56253 16.3125 9.56253V7.56253Z" fill="#2C2C2C"/>
</g>
<path d="M12 19.3125H16.625C18.8341 19.3125 20.625 17.5216 20.625 15.3125V7.1875C20.625 4.97836 18.8341 3.1875 16.625 3.1875H7.375C5.16586 3.1875 3.375 4.97836 3.375 7.1875V11.25" stroke="#2C2C2C" stroke-width="2" stroke-linecap="round"/>
<path d="M8.1665 19.3122V14.833M8.1665 14.833H3.37484M8.1665 14.833L3.37484 19.3122" stroke="#2C2C2C" stroke-width="2" stroke-linecap="round" stroke-linejoin="round"/>
</svg>
