<svg width="22" height="22" viewBox="0 0 22 22" fill="none" xmlns="http://www.w3.org/2000/svg">
<path d="M3.125 9.28221C3.125 8.38979 3.84845 7.66634 4.74087 7.66634V7.66634C5.35836 7.66634 5.92186 7.31443 6.19284 6.75957L6.91667 5.27745C6.95064 5.20789 6.96763 5.1731 6.98452 5.14145C7.32008 4.5126 7.96497 4.10986 8.6773 4.08429C8.71315 4.08301 8.75186 4.08301 8.82928 4.08301H13.1707C13.2481 4.08301 13.2869 4.08301 13.3227 4.08429C14.035 4.10986 14.6799 4.5126 15.0155 5.14145C15.0324 5.1731 15.0494 5.20789 15.0833 5.27745L15.8072 6.75957C16.0781 7.31443 16.6416 7.66634 17.2591 7.66634V7.66634C18.1515 7.66634 18.875 8.38979 18.875 9.28221V13.8092C18.875 15.3077 18.875 16.0569 18.6133 16.6417C18.3121 17.3148 17.7735 17.8535 17.1003 18.1547C16.5156 18.4163 15.7664 18.4163 14.2679 18.4163H7.73214C6.23365 18.4163 5.4844 18.4163 4.89967 18.1547C4.2265 17.8535 3.68787 17.3148 3.38665 16.6417C3.125 16.0569 3.125 15.3077 3.125 13.8092V9.28221Z" stroke="#2C2C2C" stroke-width="2"/>
<path d="M13.5 12.1458C13.5 13.5949 12.3587 14.7292 11 14.7292C9.64134 14.7292 8.5 13.5949 8.5 12.1458C8.5 10.6968 9.64134 9.5625 11 9.5625C12.3587 9.5625 13.5 10.6968 13.5 12.1458Z" stroke="#2C2C2C" stroke-width="2"/>
</svg>
