<svg width="16" height="17" viewBox="0 0 16 17" fill="none" xmlns="http://www.w3.org/2000/svg">
<path d="M3.55167 6.14111L0.852539 8.42957M0.852539 8.42957L3.55167 10.7888M0.852539 8.42957H7.50568" stroke="#E54D33" stroke-width="1.5" stroke-miterlimit="1.19122" stroke-linecap="round" stroke-linejoin="round"/>
<path d="M6.41895 4.82867V4.82867C6.41895 3.88322 6.41895 3.41049 6.58849 3.02539C6.7422 2.67627 6.99254 2.37838 7.30999 2.16687C7.66016 1.93356 8.12583 1.85218 9.05717 1.68943L9.19729 1.66495C11.3867 1.28234 12.4814 1.09103 13.3162 1.46201C13.8327 1.69152 14.2738 2.06224 14.5888 2.53149C15.098 3.28998 15.098 4.40128 15.098 6.62389V10.488C15.098 12.6755 15.098 13.7693 14.5928 14.5257C14.2975 14.9679 13.8901 15.3237 13.4121 15.5566C12.5944 15.955 11.5106 15.8074 9.34311 15.5122V15.5122C8.21298 15.3582 7.64792 15.2813 7.23949 14.983C6.99906 14.8075 6.80086 14.5804 6.65934 14.3185C6.41895 13.8736 6.41895 13.3033 6.41895 12.1627V12.1117" stroke="#E54D33" stroke-width="1.5" stroke-miterlimit="16" stroke-linecap="square"/>
</svg>
