<svg width="23" height="23" viewBox="0 0 23 23" fill="none" xmlns="http://www.w3.org/2000/svg">
<path fill-rule="evenodd" clip-rule="evenodd" d="M10.1912 12.7139C5.4292 12.7139 1.46067 16.2742 0.576807 20.9935C0.37347 22.0792 1.28854 22.9827 2.39311 22.9827H17.9892C19.0938 22.9827 20.0089 22.0792 19.8055 20.9935C18.9217 16.2742 14.9531 12.7139 10.1912 12.7139Z" fill="#888888"/>
<path d="M18.0235 10.5471L18.2209 10.6288L18.0235 10.5471L16.4022 14.6096L16.3973 14.6218C16.2724 14.9347 16.1719 15.1867 16.1043 15.3953C16.0348 15.6098 15.9912 15.8046 15.9955 15.9995C16.0013 16.2646 16.0725 16.5071 16.2 16.696C16.2938 16.8349 16.4204 16.923 16.5748 16.9974C16.7249 17.0698 16.9192 17.1371 17.1605 17.2207L17.1699 17.2239L17.1788 17.227C17.4013 17.3041 17.5809 17.3663 17.7324 17.4006C17.8886 17.4359 18.0332 17.4462 18.1856 17.4041C18.394 17.3465 18.5957 17.2202 18.7679 17.0394C18.8938 16.9073 18.9884 16.7472 19.0786 16.5576C19.166 16.3738 19.259 16.1408 19.3741 15.8524L19.3787 15.8409L21.0236 11.7192L21.0307 11.7015C21.1272 11.4597 21.2102 11.2519 21.2592 11.0792C21.3116 10.8945 21.3381 10.7077 21.2856 10.529C21.2331 10.3503 21.1222 10.2496 20.9944 10.1777C20.875 10.1105 20.7147 10.055 20.5282 9.99042L20.5146 9.9857L19.4881 9.63006L19.4751 9.62558C19.3035 9.56612 19.1553 9.51475 19.0286 9.49411C18.8925 9.47196 18.7517 9.47939 18.604 9.57187C18.4563 9.66434 18.3556 9.80818 18.2728 9.96734C18.1957 10.1156 18.119 10.3078 18.0302 10.5304L18.0235 10.5471Z" fill="#888888" stroke="white" stroke-width="0.5"/>
<path d="M17.8877 11.4275L17.6946 11.3606L17.5948 11.6109L16.0322 15.5261C16.0254 15.5432 16.0187 15.5601 16.012 15.5767C15.8579 15.9625 15.7508 16.2306 15.7309 16.5071C15.711 16.7837 15.7811 17.0308 15.8819 17.3863C15.8863 17.4017 15.8907 17.4172 15.8952 17.433L16.1223 18.2354C16.1235 18.2397 16.1247 18.244 16.126 18.2482C16.154 18.3473 16.1813 18.444 16.2133 18.5182C16.2495 18.6021 16.3042 18.6892 16.4028 18.7307C16.5013 18.7722 16.6002 18.7498 16.6837 18.7163C16.7576 18.6866 16.8436 18.6378 16.9319 18.5876L16.9433 18.5811L17.8476 18.0675C17.8618 18.0594 17.8758 18.0514 17.8897 18.0436C18.2105 17.8615 18.4335 17.735 18.6116 17.521C18.7897 17.3069 18.898 17.0352 19.0539 16.6443C19.0606 16.6274 19.0674 16.6103 19.0744 16.593L20.6321 12.6897L20.7413 12.4161L20.5303 12.343L17.8877 11.4275Z" fill="#888888" stroke="white" stroke-width="0.5"/>
<path d="M16.7953 6.69837C16.7953 10.1599 13.8851 12.4307 10.2953 12.4307C6.70544 12.4307 3.79529 10.1599 3.79529 6.69837C3.79529 3.23681 6.70544 0.430664 10.2953 0.430664C13.8851 0.430664 16.7953 3.23681 16.7953 6.69837Z" fill="#555555"/>
</svg>
