<svg width="13" height="17" viewBox="0 0 13 17" fill="none" xmlns="http://www.w3.org/2000/svg">
<mask id="path-1-inside-1_819_24785" fill="white">
<path fill-rule="evenodd" clip-rule="evenodd" d="M6.48432 9.23193C3.50947 9.23193 0.99624 11.3033 0.186128 14.145C-0.1167 15.2073 0.807396 16.12 1.91197 16.12H11.0567C12.1612 16.12 13.0853 15.2073 12.7825 14.145C11.9724 11.3033 9.45917 9.23193 6.48432 9.23193Z"/>
</mask>
<path d="M12.7825 14.145L11.34 14.5563L12.7825 14.145ZM0.186128 14.145L-1.2564 13.7338L0.186128 14.145ZM1.62865 14.5562C2.27161 12.3009 4.23799 10.7319 6.48432 10.7319V7.73193C2.78095 7.73193 -0.279129 10.3058 -1.2564 13.7338L1.62865 14.5562ZM11.0567 14.62H1.91197V17.62H11.0567V14.62ZM6.48432 10.7319C8.73066 10.7319 10.697 12.3009 11.34 14.5563L14.225 13.7338C13.2478 10.3058 10.1877 7.73193 6.48432 7.73193V10.7319ZM11.0567 17.62C12.0126 17.62 12.9263 17.2276 13.5526 16.545C14.2002 15.8393 14.5335 14.8157 14.225 13.7338L11.34 14.5563C11.3428 14.5661 11.3376 14.5496 11.3445 14.523C11.3502 14.5015 11.3565 14.5011 11.3422 14.5167C11.3269 14.5334 11.2945 14.5604 11.2416 14.5832C11.1897 14.6055 11.1265 14.62 11.0567 14.62V17.62ZM-1.2564 13.7338C-1.56485 14.8157 -1.23157 15.8393 -0.583932 16.545C0.0423737 17.2276 0.955999 17.62 1.91197 17.62V14.62C1.84211 14.62 1.77897 14.6055 1.72706 14.5832C1.6741 14.5604 1.64179 14.5334 1.62648 14.5167C1.61212 14.5011 1.61848 14.5015 1.62411 14.523C1.63103 14.5496 1.62584 14.5661 1.62865 14.5562L-1.2564 13.7338Z" fill="#2C2C2C" mask="url(#path-1-inside-1_819_24785)"/>
<path d="M10.0058 5.01371C10.0058 6.02163 9.70309 6.76685 9.18127 7.26398C8.65527 7.7651 7.80719 8.10882 6.53245 8.10882C5.25772 8.10882 4.40963 7.7651 3.88363 7.26398C3.36182 6.76685 3.05909 6.02163 3.05909 5.01371C3.05909 3.10917 4.61096 1.55945 6.53245 1.55945C8.45395 1.55945 10.0058 3.10917 10.0058 5.01371Z" stroke="#2C2C2C" stroke-width="1.5" stroke-linecap="round"/>
</svg>
