<svg width="15" height="18" viewBox="0 0 15 18" fill="none" xmlns="http://www.w3.org/2000/svg">
<path d="M0.84082 11.0931C0.84082 9.43307 0.84082 8.60306 1.30326 8.04715C1.38136 7.95326 1.4679 7.86671 1.5618 7.78861C2.11771 7.32617 2.94772 7.32617 4.60773 7.32617H9.63027C11.2903 7.32617 12.1203 7.32617 12.6762 7.78861C12.7701 7.86671 12.8566 7.95326 12.9347 8.04715C13.3972 8.60306 13.3972 9.43307 13.3972 11.0931V11.0931C13.3972 13.5831 13.3972 14.8281 12.7035 15.662C12.5864 15.8028 12.4565 15.9326 12.3157 16.0498C11.4818 16.7434 10.2368 16.7434 7.74681 16.7434H6.49118C4.00116 16.7434 2.75616 16.7434 1.92229 16.0498C1.78145 15.9326 1.65163 15.8028 1.53448 15.662C0.84082 14.8281 0.84082 13.5831 0.84082 11.0931V11.0931Z" stroke="#2C2C2C" stroke-width="1.5"/>
<path d="M11.6228 6.76402L11.6341 6.27334C11.6718 4.6354 10.7821 3.11636 9.33503 2.34811V2.34811C7.61201 1.43339 5.49012 1.78342 4.15219 3.20309L3.56953 3.82134" stroke="#2C2C2C" stroke-width="1.5" stroke-linecap="round"/>
<circle cx="7.11886" cy="12.0339" r="1.56954" fill="#2C2C2C"/>
</svg>
