<svg width="23" height="23" viewBox="0 0 23 23" fill="none" xmlns="http://www.w3.org/2000/svg">
<path d="M15.215 6.59696L15.215 8.27474L15.215 22.0071C15.215 22.4184 15.215 22.624 15.083 22.6947C14.9509 22.7654 14.7798 22.6513 14.4377 22.4232L11.8257 20.6819C11.6913 20.5922 11.624 20.5474 11.5483 20.5474C11.4726 20.5474 11.4054 20.5922 11.271 20.6819L8.15902 22.7565C8.02459 22.8461 7.95737 22.8909 7.88167 22.8909C7.80598 22.8909 7.73876 22.8461 7.60432 22.7565L4.49236 20.6819L4.49235 20.6819C4.35792 20.5922 4.2907 20.5474 4.21501 20.5474C4.13931 20.5474 4.07209 20.5922 3.93766 20.6819L1.32569 22.4232C0.983504 22.6513 0.812411 22.7654 0.680375 22.6947C0.54834 22.624 0.54834 22.4184 0.54834 22.0071L0.548339 4.94142C0.548339 3.0558 0.548339 2.11299 1.13413 1.5272C1.71991 0.941416 2.66272 0.941416 4.54834 0.941416L18.8817 0.941417L17.8868 1.60465C16.5789 2.47658 15.925 2.91255 15.57 3.57583C15.215 4.23911 15.215 5.02506 15.215 6.59696Z" fill="#F56952"/>
<path d="M15.215 3.94141C15.215 2.28455 16.5581 0.941406 18.215 0.941406H19.5483C21.2052 0.941406 22.5483 2.28455 22.5483 3.94141V7.27474C22.5483 7.82702 22.1006 8.27474 21.5483 8.27474H15.715C15.4388 8.27474 15.215 8.05088 15.215 7.77474V3.94141Z" fill="#CD3319"/>
<path d="M3.604 8.88672L12.1596 8.88672" stroke="#CD3319" stroke-linecap="round"/>
<path d="M3.60388 12.5527L8.49277 12.5527" stroke="#CD3319" stroke-linecap="round"/>
<path d="M3.604 16.2188L10.9373 16.2188" stroke="#CD3319" stroke-linecap="round"/>
</svg>
