<svg width="16" height="17" viewBox="0 0 16 17" fill="none" xmlns="http://www.w3.org/2000/svg">
<mask id="path-1-outside-1_819_24795" maskUnits="userSpaceOnUse" x="0.0429688" y="0.0927734" width="16" height="17" fill="black">
<rect fill="white" x="0.0429688" y="0.0927734" width="16" height="17"/>
<path fill-rule="evenodd" clip-rule="evenodd" d="M14.207 7.41456C14.207 5.27906 14.207 4.21131 13.6945 3.44429C13.4727 3.11224 13.1876 2.82715 12.8555 2.60528C12.0885 2.09277 11.0208 2.09277 8.88526 2.09277H7.36475C5.22925 2.09277 4.1615 2.09277 3.39449 2.60528C3.06244 2.82715 2.77734 3.11224 2.55547 3.44429C2.04297 4.21131 2.04297 5.27906 2.04297 7.41456C2.04297 9.55005 2.04297 10.6178 2.55547 11.3848C2.77734 11.7169 3.06244 12.002 3.39449 12.2238C4.06454 12.6715 4.96409 12.7281 6.6045 12.7353V12.7363L7.44501 14.4174C7.72518 14.9777 8.52482 14.9777 8.805 14.4174L9.64551 12.7363V12.7353C11.2859 12.7281 12.1855 12.6715 12.8555 12.2238C13.1876 12.002 13.4727 11.7169 13.6945 11.3848C14.207 10.6178 14.207 9.55005 14.207 7.41456ZM5.84406 5.39402C5.56791 5.39402 5.34406 5.61787 5.34406 5.89402C5.34406 6.17016 5.56791 6.39402 5.84406 6.39402H10.4056C10.6817 6.39402 10.9056 6.17016 10.9056 5.89402C10.9056 5.61787 10.6817 5.39402 10.4056 5.39402H5.84406ZM5.84406 8.43504C5.56791 8.43504 5.34406 8.65889 5.34406 8.93504C5.34406 9.21118 5.56791 9.43504 5.84406 9.43504H8.12482C8.40096 9.43504 8.62482 9.21118 8.62482 8.93504C8.62482 8.65889 8.40096 8.43504 8.12482 8.43504H5.84406Z"/>
</mask>
<path d="M13.6945 3.44429L12.4473 4.27765L12.4473 4.27765L13.6945 3.44429ZM12.8555 2.60528L12.0222 3.85248L12.0222 3.85248L12.8555 2.60528ZM3.39449 2.60528L2.56113 1.35807L2.56113 1.35807L3.39449 2.60528ZM2.55547 3.44429L1.30827 2.61094L1.30827 2.61094L2.55547 3.44429ZM2.55547 11.3848L3.80268 10.5515L3.80268 10.5515L2.55547 11.3848ZM3.39449 12.2238L4.22784 10.9766L4.22784 10.9766L3.39449 12.2238ZM6.6045 12.7353H8.1045C8.1045 11.9094 7.4369 11.2389 6.61104 11.2353L6.6045 12.7353ZM6.6045 12.7363H5.1045C5.1045 12.9692 5.15871 13.1989 5.26286 13.4072L6.6045 12.7363ZM9.64551 12.7363L10.9872 13.4072C11.0913 13.1989 11.1455 12.9692 11.1455 12.7363H9.64551ZM9.64551 12.7353L9.63897 11.2353C8.81311 11.2389 8.14551 11.9094 8.14551 12.7353H9.64551ZM12.8555 12.2238L12.0222 10.9766L12.0222 10.9766L12.8555 12.2238ZM13.6945 11.3848L12.4473 10.5515L12.4473 10.5515L13.6945 11.3848ZM12.4473 4.27765C12.5115 4.37361 12.5987 4.5569 12.6507 5.06805C12.7052 5.60427 12.707 6.31559 12.707 7.41456H15.707C15.707 6.37802 15.7089 5.48772 15.6353 4.76444C15.5591 4.01608 15.3901 3.28199 14.9417 2.61094L12.4473 4.27765ZM12.0222 3.85248C12.1904 3.96491 12.3349 4.10938 12.4473 4.27765L14.9417 2.61094C14.6104 2.1151 14.1847 1.68938 13.6889 1.35807L12.0222 3.85248ZM8.88526 3.59277C9.98423 3.59277 10.6955 3.59459 11.2318 3.64913C11.7429 3.70113 11.9262 3.78836 12.0222 3.85248L13.6889 1.35807C13.0178 0.909689 12.2837 0.740666 11.5354 0.664538C10.8121 0.59096 9.92179 0.592773 8.88526 0.592773V3.59277ZM7.36475 3.59277H8.88526V0.592773H7.36475V3.59277ZM4.22784 3.85248C4.32381 3.78836 4.5071 3.70113 5.01825 3.64913C5.55446 3.59459 6.26578 3.59277 7.36475 3.59277V0.592773C6.32822 0.592773 5.43792 0.59096 4.71463 0.664538C3.96628 0.740666 3.23219 0.909689 2.56113 1.35807L4.22784 3.85248ZM3.80268 4.27765C3.91511 4.10938 4.05958 3.96491 4.22784 3.85248L2.56113 1.35807C2.0653 1.68938 1.63957 2.1151 1.30827 2.61094L3.80268 4.27765ZM3.54297 7.41456C3.54297 6.31559 3.54478 5.60427 3.59933 5.06805C3.65133 4.5569 3.73856 4.37361 3.80268 4.27765L1.30827 2.61094C0.859885 3.28199 0.690862 4.01608 0.614733 4.76444C0.541155 5.48772 0.542969 6.37802 0.542969 7.41456H3.54297ZM3.80268 10.5515C3.73856 10.4555 3.65133 10.2722 3.59933 9.76106C3.54478 9.22484 3.54297 8.51352 3.54297 7.41456H0.542969C0.542969 8.45109 0.541155 9.34139 0.614733 10.0647C0.690862 10.813 0.859885 11.5471 1.30827 12.2182L3.80268 10.5515ZM4.22784 10.9766C4.05958 10.8642 3.91511 10.7197 3.80268 10.5515L1.30827 12.2182C1.63957 12.714 2.0653 13.1397 2.56113 13.471L4.22784 10.9766ZM6.61104 11.2353C5.7837 11.2317 5.24266 11.2144 4.841 11.1589C4.46345 11.1067 4.31189 11.0328 4.22784 10.9766L2.56113 13.471C3.14713 13.8626 3.78038 14.0408 4.43022 14.1306C5.05595 14.2171 5.78489 14.2317 6.59795 14.2353L6.61104 11.2353ZM8.1045 12.7363V12.7353H5.1045V12.7363H8.1045ZM8.78665 13.7465L7.94614 12.0655L5.26286 13.4072L6.10337 15.0882L8.78665 13.7465ZM7.46336 13.7466C7.73597 13.2013 8.51404 13.2013 8.78665 13.7465L6.10337 15.0882C6.93633 16.7541 9.31368 16.7541 10.1466 15.0882L7.46336 13.7466ZM8.30387 12.0655L7.46336 13.7466L10.1466 15.0882L10.9872 13.4072L8.30387 12.0655ZM8.14551 12.7353V12.7363H11.1455V12.7353H8.14551ZM12.0222 10.9766C11.9381 11.0328 11.7866 11.1067 11.409 11.1589C11.0073 11.2144 10.4663 11.2317 9.63897 11.2353L9.65206 14.2353C10.4651 14.2317 11.1941 14.2171 11.8198 14.1306C12.4696 14.0408 13.1029 13.8626 13.6889 13.471L12.0222 10.9766ZM12.4473 10.5515C12.3349 10.7197 12.1904 10.8642 12.0222 10.9766L13.6889 13.471C14.1847 13.1397 14.6104 12.714 14.9417 12.2182L12.4473 10.5515ZM12.707 7.41456C12.707 8.51352 12.7052 9.22484 12.6507 9.76106C12.5987 10.2722 12.5115 10.4555 12.4473 10.5515L14.9417 12.2182C15.3901 11.5471 15.5591 10.813 15.6353 10.0647C15.7089 9.34139 15.707 8.45109 15.707 7.41456H12.707ZM6.84406 5.89402C6.84406 6.4463 6.39634 6.89402 5.84406 6.89402V3.89402C4.73949 3.89402 3.84406 4.78945 3.84406 5.89402H6.84406ZM5.84406 4.89402C6.39634 4.89402 6.84406 5.34173 6.84406 5.89402H3.84406C3.84406 6.99859 4.73949 7.89402 5.84406 7.89402V4.89402ZM10.4056 4.89402H5.84406V7.89402H10.4056V4.89402ZM9.40558 5.89402C9.40558 5.34173 9.8533 4.89402 10.4056 4.89402V7.89402C11.5102 7.89402 12.4056 6.99859 12.4056 5.89402H9.40558ZM10.4056 6.89402C9.8533 6.89402 9.40558 6.4463 9.40558 5.89402H12.4056C12.4056 4.78945 11.5102 3.89402 10.4056 3.89402V6.89402ZM5.84406 6.89402H10.4056V3.89402H5.84406V6.89402ZM6.84406 8.93504C6.84406 9.48732 6.39634 9.93504 5.84406 9.93504V6.93504C4.73949 6.93504 3.84406 7.83047 3.84406 8.93504H6.84406ZM5.84406 7.93504C6.39634 7.93504 6.84406 8.38275 6.84406 8.93504H3.84406C3.84406 10.0396 4.73949 10.935 5.84406 10.935V7.93504ZM8.12482 7.93504H5.84406V10.935H8.12482V7.93504ZM7.12482 8.93504C7.12482 8.38275 7.57253 7.93504 8.12482 7.93504V10.935C9.22939 10.935 10.1248 10.0396 10.1248 8.93504H7.12482ZM8.12482 9.93504C7.57253 9.93504 7.12482 9.48732 7.12482 8.93504H10.1248C10.1248 7.83047 9.22939 6.93504 8.12482 6.93504V9.93504ZM5.84406 9.93504H8.12482V6.93504H5.84406V9.93504Z" fill="#2C2C2C" mask="url(#path-1-outside-1_819_24795)"/>
</svg>
