<svg width="25" height="24" viewBox="0 0 25 24" fill="none" xmlns="http://www.w3.org/2000/svg">
<path d="M3.21533 13.0982C3.21533 12.0891 3.21533 11.5845 3.437 11.1538C3.65866 10.723 4.06923 10.4298 4.89038 9.84325L11.3862 5.20339C11.9475 4.80243 12.2282 4.60195 12.5487 4.60195C12.8691 4.60195 13.1498 4.80243 13.7111 5.20339L20.207 9.84325C21.0281 10.4298 21.4387 10.723 21.6603 11.1538C21.882 11.5845 21.882 12.0891 21.882 13.0982V21.0397C21.882 21.9825 21.882 22.4539 21.5891 22.7468C21.2962 23.0397 20.8248 23.0397 19.882 23.0397H5.21533C4.27252 23.0397 3.80112 23.0397 3.50823 22.7468C3.21533 22.4539 3.21533 21.9825 3.21533 21.0397V13.0982Z" fill="#F56952"/>
<path d="M0.54834 11.7597C0.54834 12.0265 0.54834 12.16 0.632437 12.2011C0.716534 12.2422 0.821864 12.1603 1.03252 11.9965L11.3205 3.99473C11.9103 3.53596 12.2052 3.30658 12.5483 3.30658C12.8914 3.30658 13.1864 3.53596 13.7762 3.99473L24.0642 11.9965C24.2748 12.1603 24.3801 12.2422 24.4642 12.2011C24.5483 12.16 24.5483 12.0265 24.5483 11.7597V10.6845C24.5483 10.2042 24.5483 9.96402 24.4467 9.75611C24.345 9.5482 24.1554 9.40075 23.7762 9.10584L13.7762 1.32807C13.1864 0.869294 12.8914 0.639908 12.5483 0.639908C12.2052 0.639908 11.9103 0.869294 11.3205 1.32807L1.32046 9.10584C0.941293 9.40075 0.751709 9.5482 0.650025 9.75611C0.54834 9.96402 0.54834 10.2042 0.54834 10.6845V11.7597Z" fill="#F56952"/>
<path d="M13.882 15.0391H11.2153C10.1108 15.0391 9.21533 15.9345 9.21533 17.0391V22.8891C9.21533 22.9719 9.28249 23.0391 9.36533 23.0391H15.732C15.8148 23.0391 15.882 22.9719 15.882 22.8891V17.0391C15.882 15.9345 14.9866 15.0391 13.882 15.0391Z" fill="#E54D33"/>
<rect x="17.8813" y="1.70508" width="2.66667" height="5.33333" rx="0.5" fill="#F56952"/>
</svg>
