<svg width="37" height="36" viewBox="0 0 37 36" fill="none" xmlns="http://www.w3.org/2000/svg">
<path d="M6.11035 18C6.11035 17.0714 6.11035 16.6071 6.13838 16.2153C6.52863 10.7588 10.8692 6.41828 16.3256 6.02803C16.7175 6 17.1818 6 18.1104 6V6C19.0389 6 19.5032 6 19.8951 6.02803C25.3515 6.41828 29.6921 10.7588 30.0823 16.2153C30.1104 16.6071 30.1104 17.0714 30.1104 18V28C30.1104 28.9428 30.1104 29.4142 29.8175 29.7071C29.5246 30 29.0532 30 28.1104 30H18.1104C17.1818 30 16.7175 30 16.3256 29.972C10.8692 29.5817 6.52863 25.2412 6.13838 19.7847C6.11035 19.3929 6.11035 18.9286 6.11035 18V18Z" fill="#AAAAAA"/>
<path d="M14.3604 15.75L23.3604 15.75" stroke="#767676" stroke-linecap="round" stroke-linejoin="round"/>
<path d="M14.3604 20.25H20.3604" stroke="#767676" stroke-linecap="round" stroke-linejoin="round"/>
<path d="M9.86035 5.25V14.25" stroke="#767676" stroke-linecap="round"/>
<path d="M5.36035 9.75H14.3604" stroke="#767676" stroke-linecap="round"/>
</svg>
