<svg width="22" height="22" viewBox="0 0 22 22" fill="none" xmlns="http://www.w3.org/2000/svg">
<path d="M18.3332 10.7503V10.7503C18.3332 9.26636 18.3332 8.52438 17.9589 8.00204C17.8315 7.8243 17.6759 7.66866 17.4981 7.5413C16.9758 7.16699 16.2338 7.16699 14.7498 7.16699H13.5465C12.7419 7.16699 12.3396 7.16699 11.9768 7.01912C11.6139 6.87125 11.3262 6.59008 10.7508 6.02774L10.3053 5.59244C9.75669 5.05627 9.48237 4.78818 9.13922 4.64115C9.11732 4.63176 9.09525 4.62277 9.07303 4.61418C8.72484 4.47949 8.34128 4.47949 7.57415 4.47949V4.47949C5.77822 4.47949 4.88025 4.47949 4.3045 5.01493C4.26908 5.04786 4.23488 5.08207 4.20194 5.11749C3.6665 5.69324 3.6665 6.59121 3.6665 8.38714V13.0212C3.6665 14.9068 3.6665 15.8496 4.25229 16.4354C4.83808 17.0212 5.78089 17.0212 7.6665 17.0212H10.0832" stroke="#2C2C2C" stroke-width="2"/>
<ellipse cx="15.1252" cy="14.7816" rx="2.29167" ry="2.23958" stroke="#2C2C2C" stroke-width="2"/>
<path d="M17.875 17.4688L19.25 18.8125" stroke="#2C2C2C" stroke-width="2" stroke-linecap="round"/>
</svg>
