<svg width="38" height="36" viewBox="0 0 38 36" fill="none" xmlns="http://www.w3.org/2000/svg">
<path fill-rule="evenodd" clip-rule="evenodd" d="M9.42049 10.0207C9.36032 10.5085 9.36032 11.089 9.36032 12.25V14.6864C9.36032 15.7232 9.36032 16.2416 9.29557 16.7475C9.1945 17.537 8.97617 18.3071 8.64777 19.0322C8.43739 19.4967 8.16529 19.9379 7.62111 20.8204L7.62109 20.8204L6.61606 22.4502C5.78376 23.7999 5.36761 24.4748 5.65374 24.9874C5.93987 25.5 6.73272 25.5 8.31842 25.5H28.9023C30.488 25.5 31.2809 25.5 31.567 24.9874C31.8531 24.4748 31.437 23.7999 30.6046 22.4502L29.5996 20.8204C29.0554 19.938 28.7833 19.4967 28.5729 19.0322C28.2445 18.3071 28.0261 17.537 27.9251 16.7474C27.8603 16.2416 27.8603 15.7232 27.8603 14.6864V13.79C27.8603 13.6243 27.8603 13.5415 27.8108 13.4968C27.7613 13.4521 27.674 13.4611 27.4994 13.479C27.3648 13.4929 27.228 13.5 27.0896 13.5C24.961 13.5 23.2354 11.8211 23.2354 9.75C23.2354 8.14122 24.2766 6.76906 25.7391 6.23664C25.9462 6.16126 26.0497 6.12357 26.0694 6.04707C26.0892 5.97057 26.0228 5.8945 25.8901 5.74237C24.6275 4.29494 22.8514 3.3083 20.8396 3.06016C20.3518 3 19.7713 3 18.6103 3C17.4493 3 16.8688 3 16.381 3.06016C12.7391 3.50936 9.86968 6.37874 9.42049 10.0207Z" fill="#AAAAAA"/>
<ellipse cx="27.0898" cy="9.75" rx="2.3125" ry="2.25" fill="#767676"/>
<path d="M22.3148 27C22.3977 27 22.4653 27.0672 22.46 27.1499C22.4124 27.891 22.0133 28.5941 21.336 29.1213C20.6132 29.6839 19.6329 30 18.6107 30C17.5885 30 16.6082 29.6839 15.8854 29.1213C15.2081 28.5941 14.8089 27.891 14.7613 27.1499C14.756 27.0672 14.8237 27 14.9065 27L18.6107 27L22.3148 27Z" fill="#767676"/>
</svg>
