<svg width="244" height="84" viewBox="0 0 244 84" fill="none" xmlns="http://www.w3.org/2000/svg">
<path d="M50.3726 60.3364C36.1383 77.9485 5.98245 55.8539 7.60345 39.5791C8.96585 25.9005 37.6319 19.1472 46.5421 27.4351C55.0964 39.1522 54.4918 55.2396 50.3726 60.3364Z" stroke="#AF4328" stroke-width="8"/>
<path d="M50.3726 60.7353C36.1383 78.3475 5.98245 56.2528 7.60345 39.978C8.96585 26.2994 37.6319 19.5462 46.5421 27.8341C55.0964 39.5511 54.4918 55.6385 50.3726 60.7353Z" stroke="#AF4328" stroke-width="8"/>
<path d="M22.7581 68.4191C-4.25694 59.2631 10.2603 25.5894 25.9546 20.9866C39.1453 17.1179 56.1594 41.1569 51.8194 52.5255C44.1672 64.8506 31.972 72.3734 22.7581 68.4191Z" stroke="#E2451B" stroke-opacity="0.7" stroke-width="8"/>
<rect x="11.7441" y="26.582" width="37.6396" height="37.6396" rx="18.8198" fill="white"/>
<path d="M27.683 35.8898C27.683 34.2728 28.9939 32.9619 30.611 32.9619V32.9619C32.228 32.9619 33.5389 34.2728 33.5389 35.8898V41.7703H39.2977C40.9545 41.7703 42.2977 43.1135 42.2977 44.7703V44.9343C42.2977 46.5911 40.9545 47.9343 39.2977 47.9343H33.5389V53.8494C33.5389 55.4665 32.228 56.7773 30.611 56.7773V56.7773C28.9939 56.7773 27.683 55.4665 27.683 53.8494V47.9343H21.8301C20.1732 47.9343 18.8301 46.5911 18.8301 44.9343V44.7703C18.8301 43.1135 20.1732 41.7703 21.8301 41.7703H27.683V35.8898Z" fill="url(#paint0_linear_830_4359)"/>
<path d="M76.0578 56.0493C74.0472 56.0493 72.1925 55.668 70.4938 54.9053C68.7952 54.108 67.4258 52.8253 66.3858 51.0573C65.3458 49.2893 64.8258 46.9493 64.8258 44.0373C64.8258 41.4027 65.3285 39.2013 66.3338 37.4333C67.3738 35.6653 68.7952 34.3307 70.5978 33.4293C72.4005 32.528 74.4632 32.0773 76.7858 32.0773C78.3805 32.0773 79.8365 32.2853 81.1538 32.7013C82.5058 33.0827 83.6325 33.568 84.5338 34.1573C85.0538 34.504 85.4698 34.9027 85.7818 35.3533C86.1285 35.7693 86.3018 36.2893 86.3018 36.9133V52.9813H82.1418V36.9653C81.5525 36.584 80.8072 36.2547 79.9058 35.9773C79.0392 35.6653 77.9992 35.5093 76.7858 35.5093C74.4632 35.5093 72.5912 36.22 71.1698 37.6413C69.7485 39.0627 69.0378 41.1773 69.0378 43.9853C69.0378 47.1053 69.7485 49.324 71.1698 50.6413C72.6258 51.9587 74.4112 52.6173 76.5258 52.6173C78.0512 52.6173 79.2818 52.3573 80.2178 51.8373C81.1538 51.3173 81.8992 50.7453 82.4538 50.1213L82.6618 53.8133C82.1418 54.368 81.3098 54.888 80.1658 55.3733C79.0565 55.824 77.6872 56.0493 76.0578 56.0493ZM82.1418 57.5573V52.0973H86.3018V57.8173C86.3018 60.1053 85.7992 61.9427 84.7938 63.3293C83.8232 64.716 82.4712 65.7213 80.7378 66.3453C79.0392 66.9693 77.1152 67.2813 74.9658 67.2813C73.2325 67.2813 71.7418 67.0907 70.4938 66.7093C69.2458 66.328 68.3965 66.016 67.9458 65.7733C66.9058 65.184 66.3858 64.4387 66.3858 63.5373C66.3858 63.052 66.4898 62.636 66.6978 62.2893C66.9405 61.9773 67.2352 61.7347 67.5818 61.5613C68.3098 62.116 69.3325 62.6187 70.6498 63.0693C72.0018 63.5547 73.4405 63.7973 74.9658 63.7973C77.2885 63.7973 79.0565 63.2947 80.2698 62.2893C81.5178 61.284 82.1418 59.7067 82.1418 57.5573ZM93.1195 25.1613C93.1195 24.4333 93.3795 23.8267 93.8995 23.3413C94.4195 22.8213 95.0608 22.5613 95.8235 22.5613C96.6208 22.5613 97.2622 22.8213 97.7475 23.3413C98.2328 23.8267 98.4755 24.4333 98.4755 25.1613C98.4755 25.8893 98.2328 26.5133 97.7475 27.0333C97.2622 27.5187 96.6208 27.7613 95.8235 27.7613C95.0608 27.7613 94.4195 27.5187 93.8995 27.0333C93.3795 26.5133 93.1195 25.8893 93.1195 25.1613ZM93.7435 43.0493H97.9035V56.6733C97.7302 56.7427 97.4702 56.812 97.1235 56.8813C96.7768 56.9853 96.3955 57.0373 95.9795 57.0373C95.2515 57.0373 94.6968 56.8987 94.3155 56.6213C93.9342 56.3093 93.7435 55.824 93.7435 55.1653V43.0493ZM97.9035 45.0773H93.7435V32.8573C93.9168 32.788 94.1768 32.7187 94.5235 32.6493C94.9048 32.5453 95.3035 32.4933 95.7195 32.4933C96.4475 32.4933 96.9848 32.6493 97.3315 32.9613C97.7128 33.2387 97.9035 33.724 97.9035 34.4173V45.0773ZM108.99 37.4853V34.1053H120.014C120.118 34.244 120.222 34.4693 120.326 34.7813C120.43 35.0587 120.482 35.388 120.482 35.7693C120.482 36.324 120.344 36.7573 120.066 37.0693C119.789 37.3467 119.39 37.4853 118.87 37.4853H108.99ZM109.718 30.8293V36.9133H105.61V30.6213C105.61 28.576 105.974 26.9293 106.702 25.6813C107.465 24.3987 108.54 23.4627 109.926 22.8733C111.348 22.2493 113.029 21.9373 114.97 21.9373C116.946 21.9373 118.489 22.1973 119.598 22.7173C120.742 23.2373 121.314 23.8787 121.314 24.6413C121.314 25.0227 121.228 25.3693 121.054 25.6813C120.916 25.9933 120.708 26.288 120.43 26.5653C119.806 26.2187 119.026 25.9413 118.09 25.7333C117.154 25.4907 116.253 25.3693 115.386 25.3693C113.272 25.3693 111.798 25.8027 110.966 26.6693C110.134 27.536 109.718 28.9227 109.718 30.8293ZM105.61 34.6253H109.77V56.6733C109.597 56.7427 109.337 56.812 108.99 56.8813C108.644 56.9853 108.262 57.0373 107.846 57.0373C107.118 57.0373 106.564 56.8987 106.182 56.6213C105.801 56.3093 105.61 55.824 105.61 55.1653V34.6253ZM125.046 43.0493H129.206V50.2253C129.206 51.612 129.605 52.6 130.402 53.1893C131.2 53.744 132.292 54.0213 133.678 54.0213C134.268 54.0213 134.926 53.9173 135.654 53.7093C136.382 53.5013 136.989 53.2587 137.474 52.9813C137.682 53.1893 137.873 53.4493 138.046 53.7613C138.22 54.0733 138.306 54.4373 138.306 54.8533C138.306 55.616 137.856 56.24 136.954 56.7253C136.053 57.2107 134.805 57.4533 133.21 57.4533C130.784 57.4533 128.808 56.916 127.282 55.8413C125.792 54.7667 125.046 52.9813 125.046 50.4853V43.0493ZM127.178 36.7053V33.2733H137.734C137.838 33.412 137.942 33.6373 138.046 33.9493C138.15 34.2613 138.202 34.5907 138.202 34.9373C138.202 35.492 138.064 35.9253 137.786 36.2373C137.509 36.5493 137.128 36.7053 136.642 36.7053H127.178ZM129.206 44.6093H125.046V25.7853C125.22 25.716 125.48 25.6467 125.826 25.5773C126.208 25.4733 126.606 25.4213 127.022 25.4213C127.75 25.4213 128.288 25.5773 128.634 25.8893C129.016 26.1667 129.206 26.6347 129.206 27.2933V44.6093ZM154.534 32.0773C156.683 32.0773 158.607 32.5453 160.306 33.4813C162.039 34.3827 163.391 35.7693 164.362 37.6413C165.367 39.5133 165.87 41.888 165.87 44.7653C165.87 47.6773 165.35 50.0693 164.31 51.9413C163.305 53.8133 161.901 55.2 160.098 56.1013C158.295 57.0027 156.198 57.4533 153.806 57.4533C152.107 57.4533 150.565 57.2453 149.178 56.8293C147.826 56.4133 146.717 55.9627 145.85 55.4773C145.122 54.992 144.619 54.5413 144.342 54.1253C144.065 53.7093 143.926 53.1373 143.926 52.4093V35.0933H148.086V52.4093C148.606 52.7907 149.369 53.1547 150.374 53.5013C151.379 53.848 152.523 54.0213 153.806 54.0213C156.163 54.0213 158.053 53.276 159.474 51.7853C160.93 50.2947 161.658 47.9547 161.658 44.7653C161.658 41.5413 160.93 39.2013 159.474 37.7453C158.018 36.2547 156.163 35.5093 153.91 35.5093C152.523 35.5093 151.293 35.7867 150.218 36.3413C149.143 36.8613 148.259 37.468 147.566 38.1613L146.786 34.7813C147.549 34.192 148.571 33.6027 149.854 33.0133C151.137 32.3893 152.697 32.0773 154.534 32.0773ZM148.086 35.9253H143.926V23.0813C144.099 23.012 144.359 22.9427 144.706 22.8733C145.087 22.7693 145.486 22.7173 145.902 22.7173C146.63 22.7173 147.167 22.8733 147.514 23.1853C147.895 23.4627 148.086 23.9307 148.086 24.5893V35.9253ZM180.523 54.0733C181.979 54.0733 183.175 53.9347 184.111 53.6573C185.081 53.3453 185.775 53.0507 186.191 52.7733V45.2333L179.743 45.9093C177.94 46.048 176.605 46.4467 175.739 47.1053C174.872 47.764 174.439 48.7173 174.439 49.9653C174.439 51.248 174.941 52.2533 175.947 52.9813C176.987 53.7093 178.512 54.0733 180.523 54.0733ZM180.471 32.0773C183.487 32.0773 185.879 32.7533 187.647 34.1053C189.415 35.4573 190.299 37.5893 190.299 40.5013V52.8253C190.299 53.588 190.143 54.1773 189.831 54.5933C189.553 54.9747 189.12 55.3387 188.531 55.6853C187.699 56.136 186.589 56.552 185.203 56.9333C183.816 57.3147 182.256 57.5053 180.523 57.5053C177.264 57.5053 174.733 56.864 172.931 55.5813C171.163 54.2987 170.279 52.444 170.279 50.0173C170.279 47.764 171.024 46.048 172.515 44.8693C174.04 43.656 176.137 42.928 178.807 42.6853L186.191 41.9573V40.5013C186.191 38.768 185.671 37.5027 184.631 36.7053C183.591 35.908 182.187 35.5093 180.419 35.5093C178.997 35.5093 177.628 35.7173 176.311 36.1333C175.028 36.5493 173.884 37.0173 172.879 37.5373C172.601 37.2947 172.341 37.0173 172.099 36.7053C171.891 36.3587 171.787 36.012 171.787 35.6653C171.787 34.764 172.289 34.0707 173.295 33.5853C174.231 33.1 175.305 32.736 176.519 32.4933C177.767 32.216 179.084 32.0773 180.471 32.0773ZM208.5 35.5613C206.142 35.5613 204.184 36.3587 202.624 37.9533C201.064 39.548 200.284 41.836 200.284 44.8173C200.284 47.764 201.029 50.0347 202.52 51.6293C204.045 53.224 206.038 54.0213 208.5 54.0213C209.956 54.0213 211.169 53.8307 212.14 53.4493C213.11 53.0333 213.977 52.5653 214.74 52.0453C215.121 52.2533 215.433 52.5133 215.676 52.8253C215.918 53.1373 216.04 53.5187 216.04 53.9693C216.04 54.94 215.312 55.772 213.856 56.4653C212.434 57.124 210.649 57.4533 208.5 57.4533C206.108 57.4533 203.958 57.0027 202.052 56.1013C200.18 55.1653 198.706 53.7613 197.632 51.8893C196.557 50.0173 196.02 47.66 196.02 44.8173C196.02 42.0093 196.574 39.6693 197.684 37.7973C198.793 35.8907 200.284 34.4693 202.156 33.5333C204.062 32.5627 206.142 32.0773 208.396 32.0773C210.545 32.0773 212.313 32.4413 213.7 33.1693C215.121 33.8973 215.832 34.7293 215.832 35.6653C215.832 36.0813 215.71 36.4453 215.468 36.7573C215.225 37.0693 214.913 37.312 214.532 37.4853C213.769 36.9653 212.92 36.5147 211.984 36.1333C211.082 35.752 209.921 35.5613 208.5 35.5613ZM228.08 45.8053L225.48 43.7773L237.336 32.2853C238.168 32.32 238.809 32.528 239.26 32.9093C239.745 33.256 239.988 33.724 239.988 34.3133C239.988 34.7987 239.832 35.232 239.52 35.6133C239.242 35.9947 238.826 36.4107 238.272 36.8613L228.08 45.8053ZM225.376 44.4533L228.288 42.7373L241.496 54.5933C241.426 55.356 241.184 55.9627 240.768 56.4133C240.386 56.864 239.866 57.0893 239.208 57.0893C238.688 57.0893 238.202 56.9507 237.752 56.6733C237.336 56.396 236.902 56.032 236.452 55.5813L225.376 44.4533ZM221.788 42.8413L225.948 43.4653V56.6733C225.774 56.7427 225.514 56.812 225.168 56.8813C224.821 56.9853 224.44 57.0373 224.024 57.0373C223.296 57.0373 222.741 56.8987 222.36 56.6213C221.978 56.3093 221.788 55.824 221.788 55.1653V42.8413ZM225.948 45.4933L221.788 44.8693V23.0813C221.961 23.012 222.221 22.9427 222.568 22.8733C222.949 22.7693 223.348 22.7173 223.764 22.7173C224.492 22.7173 225.029 22.8733 225.376 23.1853C225.757 23.4627 225.948 23.9307 225.948 24.5893V45.4933Z" fill="#2C2C2C"/>
<defs>
<linearGradient id="paint0_linear_830_4359" x1="18.8301" y1="56.5125" x2="42.2977" y2="33.2267" gradientUnits="userSpaceOnUse">
<stop stop-color="#0E0202"/>
<stop offset="1" stop-color="#262625"/>
</linearGradient>
</defs>
</svg>
